<svg id="visual" viewBox="0 0 960 540" width="960" height="540" xmlns="http://www.w3.org/2000/svg" xmlns:xlink="http://www.w3.org/1999/xlink" version="1.1"><rect x="0" y="0" width="960" height="540" fill="#0D1321"></rect><defs><linearGradient id="grad1_0" x1="43.8%" y1="0%" x2="100%" y2="100%"><stop offset="14.444444444444446%" stop-color="#3c81fa" stop-opacity="1"></stop><stop offset="85.55555555555554%" stop-color="#3c81fa" stop-opacity="1"></stop></linearGradient></defs><defs><linearGradient id="grad1_1" x1="43.8%" y1="0%" x2="100%" y2="100%"><stop offset="14.444444444444446%" stop-color="#3c81fa" stop-opacity="1"></stop><stop offset="85.55555555555554%" stop-color="#2b64be" stop-opacity="1"></stop></linearGradient></defs><defs><linearGradient id="grad1_2" x1="43.8%" y1="0%" x2="100%" y2="100%"><stop offset="14.444444444444446%" stop-color="#204786" stop-opacity="1"></stop><stop offset="85.55555555555554%" stop-color="#2b64be" stop-opacity="1"></stop></linearGradient></defs><defs><linearGradient id="grad1_3" x1="43.8%" y1="0%" x2="100%" y2="100%"><stop offset="14.444444444444446%" stop-color="#204786" stop-opacity="1"></stop><stop offset="85.55555555555554%" stop-color="#172c51" stop-opacity="1"></stop></linearGradient></defs><defs><linearGradient id="grad1_4" x1="43.8%" y1="0%" x2="100%" y2="100%"><stop offset="14.444444444444446%" stop-color="#0d1321" stop-opacity="1"></stop><stop offset="85.55555555555554%" stop-color="#172c51" stop-opacity="1"></stop></linearGradient></defs><defs><linearGradient id="grad2_0" x1="0%" y1="0%" x2="56.3%" y2="100%"><stop offset="14.444444444444446%" stop-color="#3c81fa" stop-opacity="1"></stop><stop offset="85.55555555555554%" stop-color="#3c81fa" stop-opacity="1"></stop></linearGradient></defs><defs><linearGradient id="grad2_1" x1="0%" y1="0%" x2="56.3%" y2="100%"><stop offset="14.444444444444446%" stop-color="#2b64be" stop-opacity="1"></stop><stop offset="85.55555555555554%" stop-color="#3c81fa" stop-opacity="1"></stop></linearGradient></defs><defs><linearGradient id="grad2_2" x1="0%" y1="0%" x2="56.3%" y2="100%"><stop offset="14.444444444444446%" stop-color="#2b64be" stop-opacity="1"></stop><stop offset="85.55555555555554%" stop-color="#204786" stop-opacity="1"></stop></linearGradient></defs><defs><linearGradient id="grad2_3" x1="0%" y1="0%" x2="56.3%" y2="100%"><stop offset="14.444444444444446%" stop-color="#172c51" stop-opacity="1"></stop><stop offset="85.55555555555554%" stop-color="#204786" stop-opacity="1"></stop></linearGradient></defs><defs><linearGradient id="grad2_4" x1="0%" y1="0%" x2="56.3%" y2="100%"><stop offset="14.444444444444446%" stop-color="#172c51" stop-opacity="1"></stop><stop offset="85.55555555555554%" stop-color="#0d1321" stop-opacity="1"></stop></linearGradient></defs><g transform="translate(960, 0)"><path d="M0 405C-35.5 361.3 -71 317.6 -126.7 305.8C-182.3 294 -258 314.1 -286.4 286.4C-314.7 258.7 -295.8 183.1 -307.7 127.4C-319.5 71.7 -362.3 35.9 -405 0L0 0Z" fill="#122038"></path><path d="M0 324C-28.4 289 -56.8 254.1 -101.3 244.6C-145.8 235.2 -206.4 251.3 -229.1 229.1C-251.8 206.9 -236.6 146.5 -246.1 101.9C-255.6 57.4 -289.8 28.7 -324 0L0 0Z" fill="#1b3a6b"></path><path d="M0 243C-21.3 216.8 -42.6 190.6 -76 183.5C-109.4 176.4 -154.8 188.5 -171.8 171.8C-188.8 155.2 -177.5 109.9 -184.6 76.5C-191.7 43 -217.4 21.5 -243 0L0 0Z" fill="#2555a2"></path><path d="M0 162C-14.2 144.5 -28.4 127 -50.7 122.3C-72.9 117.6 -103.2 125.6 -114.6 114.6C-125.9 103.5 -118.3 73.3 -123.1 51C-127.8 28.7 -144.9 14.3 -162 0L0 0Z" fill="#3372dc"></path><path d="M0 81C-7.1 72.3 -14.2 63.5 -25.3 61.2C-36.5 58.8 -51.6 62.8 -57.3 57.3C-62.9 51.7 -59.2 36.6 -61.5 25.5C-63.9 14.3 -72.5 7.2 -81 0L0 0Z" fill="#3c81fa"></path></g><g transform="translate(0, 540)"><path d="M0 -405C29 -346.7 58 -288.4 115.6 -279C173.1 -269.6 259.2 -309 286.4 -286.4C313.6 -263.7 282 -179 291.9 -120.9C301.9 -62.9 353.5 -31.4 405 0L0 0Z" fill="#122038"></path><path d="M0 -324C23.2 -277.4 46.4 -230.7 92.5 -223.2C138.5 -215.7 207.3 -247.2 229.1 -229.1C250.9 -211 225.6 -143.2 233.6 -96.7C241.5 -50.3 282.8 -25.1 324 0L0 0Z" fill="#1b3a6b"></path><path d="M0 -243C17.4 -208 34.8 -173.1 69.3 -167.4C103.9 -161.8 155.5 -185.4 171.8 -171.8C188.2 -158.2 169.2 -107.4 175.2 -72.6C181.1 -37.7 212.1 -18.9 243 0L0 0Z" fill="#2555a2"></path><path d="M0 -162C11.6 -138.7 23.2 -115.4 46.2 -111.6C69.2 -107.8 103.7 -123.6 114.6 -114.6C125.4 -105.5 112.8 -71.6 116.8 -48.4C120.8 -25.1 141.4 -12.6 162 0L0 0Z" fill="#3372dc"></path><path d="M0 -81C5.8 -69.3 11.6 -57.7 23.1 -55.8C34.6 -53.9 51.8 -61.8 57.3 -57.3C62.7 -52.7 56.4 -35.8 58.4 -24.2C60.4 -12.6 70.7 -6.3 81 0L0 0Z" fill="#3c81fa"></path></g></svg>