<?xml version="1.0" encoding="utf-8"?>
<!-- Generator: Adobe Illustrator 26.0.1, SVG Export Plug-In . SVG Version: 6.00 Build 0)  -->
<svg version="1.1" id="visual" xmlns="http://www.w3.org/2000/svg" xmlns:xlink="http://www.w3.org/1999/xlink" x="0px" y="0px"
	 viewBox="0 0 540 327" style="enable-background:new 0 0 540 327;" xml:space="preserve">
<style type="text/css">
	.st0{fill:#69B4FA;}
	.st1{fill:#619CD8;}
	.st2{fill:#5785B7;}
	.st3{fill:#4D6F97;}
	.st4{fill:#425A79;}
</style>
<path class="st0" d="M0,16l12.8,16.7c12.9,16.6,38.5,50,64.2,48.6c25.7-1.3,51.3-37.3,77-37c25.7,0.4,51.3,37,77.2,49
	c25.8,12,51.8-0.6,77.6-2.5c25.9-1.8,51.5,7.2,77.2-1.3s51.3-34.5,77-36s51.3,21.5,64.2,33L540,98v230h-12.8c-12.9,0-38.5,0-64.2,0
	s-51.3,0-77,0s-51.3,0-77.2,0c-25.8,0-51.8,0-77.6,0c-25.9,0-51.5,0-77.2,0s-51.3,0-77,0s-51.3,0-64.2,0H0V16z"/>
<path class="st1" d="M0,69l12.8,6.8c12.9,6.9,38.5,20.5,64.2,29.5s51.3,13.4,77,22.7s51.3,23.7,77.2,23.2
	c25.8-0.5,51.8-15.9,77.6-14.5c25.9,1.3,51.5,19.3,77.2,26.8s51.3,4.5,77-10.5s51.3-42,64.2-55.5L540,84v244h-12.8
	c-12.9,0-38.5,0-64.2,0s-51.3,0-77,0s-51.3,0-77.2,0c-25.8,0-51.8,0-77.6,0c-25.9,0-51.5,0-77.2,0s-51.3,0-77,0s-51.3,0-64.2,0H0V69
	z"/>
<path class="st2" d="M0,157l12.8-2.7c12.9-2.6,38.5-8,64.2-12.5s51.3-8.1,77-12c25.7-3.8,51.3-7.8,77.2-5.3
	C257,127,283,136,308.8,147.3c25.9,11.4,51.5,25,77.2,32.5s51.3,8.9,77,4c25.7-4.8,51.3-15.8,64.2-21.3L540,157v171h-12.8
	c-12.9,0-38.5,0-64.2,0s-51.3,0-77,0s-51.3,0-77.2,0c-25.8,0-51.8,0-77.6,0c-25.9,0-51.5,0-77.2,0s-51.3,0-77,0s-51.3,0-64.2,0H0
	V157z"/>
<path class="st3" d="M0,186l12.8-1.7c12.9-1.6,38.5-5,64.2,3s51.3,27.4,77,28c25.7,0.7,51.3-17.3,77.2-26.6c25.8-9.4,51.8-10,77.6-4
	c25.9,6,51.5,18.6,77.2,18c25.7-0.7,51.3-14.7,77-11.7s51.3,23,64.2,33l12.8,10v94h-12.8c-12.9,0-38.5,0-64.2,0s-51.3,0-77,0
	s-51.3,0-77.2,0c-25.8,0-51.8,0-77.6,0c-25.9,0-51.5,0-77.2,0s-51.3,0-77,0s-51.3,0-64.2,0H0V186z"/>
<path class="st4" d="M0,281l12.8-3.3c12.9-3.4,38.5-10,64.2-12.7s51.3-1.3,77-3.3s51.3-7.4,77.2-8.2c25.8-0.8,51.8,2.8,77.6,9.5
	c25.9,6.7,51.5,16.3,77.2,11.7c25.7-4.7,51.3-23.7,77-23.9c25.7-0.1,51.3,18.5,64.2,27.9L540,288v40h-12.8c-12.9,0-38.5,0-64.2,0
	s-51.3,0-77,0s-51.3,0-77.2,0c-25.8,0-51.8,0-77.6,0c-25.9,0-51.5,0-77.2,0s-51.3,0-77,0s-51.3,0-64.2,0H0V281z"/>
</svg>
