<?xml version="1.0" encoding="utf-8"?>
<!-- Generator: Adobe Illustrator 26.0.1, SVG Export Plug-In . SVG Version: 6.00 Build 0)  -->
<svg version="1.1" id="visual" xmlns="http://www.w3.org/2000/svg" xmlns:xlink="http://www.w3.org/1999/xlink" x="0px" y="0px"
	 viewBox="0 0 540 304" style="enable-background:new 0 0 540 304;" xml:space="preserve">
<style type="text/css">
	.st0{fill:#425A79;}
	.st1{fill:#6282A7;}
	.st2{fill:#486A8F;}
	.st3{fill:#1D3044;}
	.st4{fill:#131D35;}
</style>
<path class="st0" d="M0,222l11.3,9.2c11.4,9.1,34,27.5,56.5,40.1c22.5,12.7,44.9,19.7,67.4,9.9c22.5-9.9,45.1-36.5,67.6-51.7
	s44.9-18.8,67.4-18s45.1,6.2,67.6,6.5s44.9-4.3,67.4,7.5s45.1,40.2,67.6,56s44.9,19.2,56,20.8L540,304V0h-11.2c-11.1,0-33.5,0-56,0
	s-45.1,0-67.6,0s-44.9,0-67.4,0s-45.1,0-67.6,0s-44.9,0-67.4,0s-45.1,0-67.6,0S90.3,0,67.8,0S22.7,0,11.3,0H0V222z"/>
<path class="st1" d="M0,252l11.3-1.3c11.4-1.4,34-4,56.5-12s44.9-21.4,67.4-20.9s45.1,14.9,67.6,20.4s44.9,2.1,67.4-4.4
	s45.1-16.1,67.6-17.6s44.9,5.1,67.4,4.6s45.1-8.1,67.6-10c22.5-1.8,44.9,2.2,56,4.2l11.2,2V0h-11.2c-11.1,0-33.5,0-56,0
	s-45.1,0-67.6,0s-44.9,0-67.4,0s-45.1,0-67.6,0s-44.9,0-67.4,0s-45.1,0-67.6,0S90.3,0,67.8,0S22.7,0,11.3,0H0V252z"/>
<path class="st2" d="M0,174l11.3,3.2c11.4,3.1,34,9.5,56.5,7.8s44.9-11.3,67.4-18.5s45.1-11.8,67.6-11.7c22.5,0.2,44.9,5.2,67.4,0.7
	s45.1-18.5,67.6-15.7c22.5,2.9,44.9,22.5,67.4,32.9c22.5,10.3,45.1,11.3,67.6,5c22.5-6.4,44.9-20,56-26.9L540,144V0h-11.2
	c-11.1,0-33.5,0-56,0s-45.1,0-67.6,0s-44.9,0-67.4,0s-45.1,0-67.6,0s-44.9,0-67.4,0s-45.1,0-67.6,0S90.3,0,67.8,0S22.7,0,11.3,0H0
	V174z"/>
<path class="st3" d="M0,95l11.3-2c11.4-2,34-6,56.5-8.3c22.5-2.4,44.9-3,67.4,4s45.1,21.6,67.6,29.8s44.9,9.8,67.4,9.8
	s45.1-1.6,67.6-9.5c22.5-7.8,44.9-21.8,67.4-19.6c22.5,2.1,45.1,20.5,67.6,30.1c22.5,9.7,44.9,10.7,56,11.2L540,141V0h-11.2
	c-11.1,0-33.5,0-56,0s-45.1,0-67.6,0s-44.9,0-67.4,0s-45.1,0-67.6,0s-44.9,0-67.4,0s-45.1,0-67.6,0S90.3,0,67.8,0S22.7,0,11.3,0H0
	V95z"/>
<path class="st4" d="M0,61l11.3,2.7c11.4,2.6,34,8,56.5,10.5s44.9,2.1,67.4,0.3s45.1-5.2,67.6-7.8c22.5-2.7,44.9-4.7,67.4-4.2
	s45.1,3.5,67.6,6.8c22.5,3.4,44.9,7,67.4,6.4c22.5-0.7,45.1-5.7,67.6-8c22.5-2.4,44.9-2,56-1.9L540,66V0h-11.2c-11.1,0-33.5,0-56,0
	s-45.1,0-67.6,0s-44.9,0-67.4,0s-45.1,0-67.6,0s-44.9,0-67.4,0s-45.1,0-67.6,0S90.3,0,67.8,0S22.7,0,11.3,0H0V61z"/>
</svg>
