<?xml version="1.0" encoding="utf-8"?>
<!-- Generator: Adobe Illustrator 26.0.1, SVG Export Plug-In . SVG Version: 6.00 Build 0)  -->
<svg version="1.1" id="visual" xmlns="http://www.w3.org/2000/svg" xmlns:xlink="http://www.w3.org/1999/xlink" x="0px" y="0px"
	 viewBox="0 0 488.7 960" style="enable-background:new 0 0 488.7 960;" xml:space="preserve">
<style type="text/css">
	.st0{fill:#0D1321;}
	.st1{fill:none;stroke:#297EA6;stroke-width:2;}
</style>
<rect x="-23" class="st0" width="540" height="960"/>
<g>
	<g transform="translate(449 563)">
		<path class="st1" d="M-23-53.1L8.2-43l19.3,26.6v32.8L8.2,43L-23,53.1L-54.2,43l-19.3-26.6v-32.8L-54.2-43L-23-53.1z"/>
	</g>
	<g transform="translate(331 720)">
		<path class="st1" d="M-23-34l20,6.5l12.3,17v21L-3,27.5L-23,34l-20-6.5l-12.3-17v-21l12.3-17L-23-34z"/>
	</g>
	<g transform="translate(242 558)">
		<path class="st1" d="M-23-47l27.6,9l17.1,23.5v29L4.6,38L-23,47l-27.6-9l-17.1-23.5v-29L-50.6-38L-23-47z"/>
	</g>
	<g transform="translate(266 359)">
		<path class="st1" d="M-23-22l12.9,4.2l8,11V6.8l-8,11L-23,22l-12.9-4.2l-8-11V-6.8l8-11L-23-22z"/>
	</g>
	<g transform="translate(294 90)">
		<path class="st1" d="M-23-52l30.6,9.9l18.9,26v32.2l-18.9,26L-23,52l-30.6-9.9l-18.9-26v-32.2l18.9-26L-23-52z"/>
	</g>
	<g transform="translate(296 825)">
		<path class="st1" d="M-23-21l12.3,4L-3-6.5v13L-10.7,17L-23,21l-12.3-4L-43,6.5v-13l7.7-10.5L-23-21z"/>
	</g>
	<g transform="translate(427 268)">
		<path class="st1" d="M-23-24l14.1,4.6l8.7,12V7.4l-8.7,12L-23,24l-14.1-4.6l-8.7-12V-7.4l8.7-12L-23-24z"/>
	</g>
	<g transform="translate(116 182)">
		<path class="st1" d="M-23-28l16.5,5.3l10.1,14V8.7l-10.1,14L-23,28l-16.5-5.3l-10.1-14V-8.7l10.1-14L-23-28z"/>
	</g>
	<g transform="translate(64 741)">
		<path class="st1" d="M-23-18l10.6,3.4l6.5,9V5.6l-6.5,9L-23,18l-10.6-3.4l-6.5-9V-5.6l6.5-9L-23-18z"/>
	</g>
	<g transform="translate(185 83)">
		<path class="st1" d="M-23-22l12.9,4.2l8,11V6.8l-8,11L-23,22l-12.9-4.2l-8-11V-6.8l8-11L-23-22z"/>
	</g>
	<g transform="translate(433 74)">
		<path class="st1" d="M-23-10l5.9,1.9l3.6,5v6.2l-3.6,5L-23,10l-5.9-1.9l-3.6-5v-6.2l3.6-5L-23-10z"/>
	</g>
	<g transform="translate(458 386)">
		<path class="st1" d="M-23-9l5.3,1.7l3.3,4.5v5.6l-3.3,4.5L-23,9l-5.3-1.7l-3.3-4.5v-5.6l3.3-4.5L-23-9z"/>
	</g>
	<g transform="translate(193 449)">
		<path class="st1" d="M-23-52l30.6,9.9l18.9,26v32.2l-18.9,26L-23,52l-30.6-9.9l-18.9-26v-32.2l18.9-26L-23-52z"/>
	</g>
	<g transform="translate(197 705)">
		<path class="st1" d="M-23-41l24.1,7.8L16-12.7v25.4L1.1,33.2L-23,41l-24.1-7.8L-62,12.7v-25.4l14.9-20.5L-23-41z"/>
	</g>
	<g transform="translate(82 887)">
		<path class="st1" d="M-23-41l24.1,7.8L16-12.7v25.4L1.1,33.2L-23,41l-24.1-7.8L-62,12.7v-25.4l14.9-20.5L-23-41z"/>
	</g>
	<g transform="translate(468 741)">
		<path class="st1" d="M-23-46l27,8.8l16.7,23v28.4L4,37.2L-23,46l-27-8.8l-16.7-23v-28.4l16.7-23L-23-46z"/>
	</g>
	<g transform="translate(104 376)">
		<path class="st1" d="M-23-40l23.5,7.6l14.5,20v24.8l-14.5,20L-23,40l-23.5-7.6l-14.5-20v-24.8l14.5-20L-23-40z"/>
	</g>
	<g transform="translate(168 812)">
		<path class="st1" d="M-23-41l24.1,7.8L16-12.7v25.4L1.1,33.2L-23,41l-24.1-7.8L-62,12.7v-25.4l14.9-20.5L-23-41z"/>
	</g>
	<g transform="translate(103 574)">
		<path class="st1" d="M-23-13l7.6,2.5l4.8,6.5v8l-4.8,6.5L-23,13l-7.6-2.5L-35.4,4v-8l4.8-6.5L-23-13z"/>
	</g>
	<g transform="translate(391 874)">
		<path class="st1" d="M-23-52l30.6,9.9l18.9,26v32.2l-18.9,26L-23,52l-30.6-9.9l-18.9-26v-32.2l18.9-26L-23-52z"/>
	</g>
	<g transform="translate(341 461)">
		<path class="st1" d="M-23-49l28.8,9.4l17.8,24.5v30.2L5.8,39.6L-23,49l-28.8-9.4l-17.8-24.5v-30.2l17.8-24.5L-23-49z"/>
	</g>
	<g transform="translate(283 214)">
		<path class="st1" d="M-23-38l22.3,7.3l13.8,19v23.4l-13.8,19L-23,38l-22.3-7.3l-13.8-19v-23.4l13.8-19L-23-38z"/>
	</g>
	<g transform="translate(188 270)">
		<path class="st1" d="M-23-38l22.3,7.3l13.8,19v23.4l-13.8,19L-23,38l-22.3-7.3l-13.8-19v-23.4l13.8-19L-23-38z"/>
	</g>
	<g transform="translate(351 606)">
		<path class="st1" d="M-23-6l3.5,1.1l2.2,3v3.8l-2.2,3L-23,6l-3.5-1.1l-2.2-3v-3.8l2.2-3L-23-6z"/>
	</g>
	<g transform="translate(57 68)">
		<path class="st1" d="M-23-28l16.5,5.3l10.1,14V8.7l-10.1,14L-23,28l-16.5-5.3l-10.1-14V-8.7l10.1-14L-23-28z"/>
	</g>
	<g transform="translate(58 477)">
		<path class="st1" d="M-23-27l15.9,5.2L2.7-8.3V8.3l-9.8,13.5L-23,27l-15.9-5.2l-9.8-13.5V-8.3l9.8-13.5L-23-27z"/>
	</g>
	<g transform="translate(218 907)">
		<path class="st1" d="M-23-31l18.2,5.9L6.5-9.6V9.6L-4.8,25.1L-23,31l-18.2-5.9L-52.5,9.6V-9.6l11.3-15.5L-23-31z"/>
	</g>
</g>
</svg>
