<svg id="visual" xmlns="http://www.w3.org/2000/svg" viewBox="0 0 488.7 960"><defs><style>.cls-1{fill:#0d1321;}.cls-2{fill:none;stroke:#297ea6;stroke-width:2px;}</style></defs><rect class="cls-1" x="-23" width="540" height="960"/><path class="cls-2" d="M426,509.9,457.2,520l19.3,26.6v32.8L457.2,606,426,616.1,394.8,606l-19.3-26.6V546.6L394.8,520Z"/><path class="cls-2" d="M308,686l20,6.5,12.3,17v21l-12.3,17L308,754l-20-6.5-12.3-17v-21l12.3-17Z"/><path class="cls-2" d="M219,511l27.6,9,17.1,23.5v29L246.6,596,219,605l-27.6-9-17.1-23.5v-29L191.4,520Z"/><path class="cls-2" d="M243,337l12.9,4.2,8,11v13.6l-8,11L243,381l-12.9-4.2-8-11V352.2l8-11Z"/><path class="cls-2" d="M271,38l30.6,9.9,18.9,26v32.2l-18.9,26L271,142l-30.6-9.9-18.9-26V73.9l18.9-26Z"/><path class="cls-2" d="M273,804l12.3,4,7.7,10.5v13L285.3,842,273,846l-12.3-4L253,831.5v-13l7.7-10.5Z"/><path class="cls-2" d="M404,244l14.1,4.6,8.7,12v14.8l-8.7,12L404,292l-14.1-4.6-8.7-12V260.6l8.7-12Z"/><path class="cls-2" d="M93,154l16.5,5.3,10.1,14v17.4l-10.1,14L93,210l-16.5-5.3-10.1-14V173.3l10.1-14Z"/><path class="cls-2" d="M41,723l10.6,3.4,6.5,9v11.2l-6.5,9L41,759l-10.6-3.4-6.5-9V735.4l6.5-9Z"/><path class="cls-2" d="M162,61l12.9,4.2,8,11V89.8l-8,11L162,105l-12.9-4.2-8-11V76.2l8-11Z"/><path class="cls-2" d="M410,64l5.9,1.9,3.6,5v6.2l-3.6,5L410,84l-5.9-1.9-3.6-5V70.9l3.6-5Z"/><path class="cls-2" d="M435,377l5.3,1.7,3.3,4.5v5.6l-3.3,4.5L435,395l-5.3-1.7-3.3-4.5v-5.6l3.3-4.5Z"/><path class="cls-2" d="M170,397l30.6,9.9,18.9,26v32.2l-18.9,26L170,501l-30.6-9.9-18.9-26V432.9l18.9-26Z"/><path class="cls-2" d="M174,664l24.1,7.8L213,692.3v25.4l-14.9,20.5L174,746l-24.1-7.8L135,717.7V692.3l14.9-20.5Z"/><path class="cls-2" d="M59,846l24.1,7.8L98,874.3v25.4L83.1,920.2,59,928l-24.1-7.8L20,899.7V874.3l14.9-20.5Z"/><path class="cls-2" d="M445,695l27,8.8,16.7,23v28.4l-16.7,23L445,787l-27-8.8-16.7-23V726.8l16.7-23Z"/><path class="cls-2" d="M81,336l23.5,7.6,14.5,20v24.8l-14.5,20L81,416l-23.5-7.6L43,388.4V363.6l14.5-20Z"/><path class="cls-2" d="M145,771l24.1,7.8L184,799.3v25.4l-14.9,20.5L145,853l-24.1-7.8L106,824.7V799.3l14.9-20.5Z"/><path class="cls-2" d="M80,561l7.6,2.5,4.8,6.5v8l-4.8,6.5L80,587l-7.6-2.5L67.6,578v-8l4.8-6.5Z"/><path class="cls-2" d="M368,822l30.6,9.9,18.9,26v32.2l-18.9,26L368,926l-30.6-9.9-18.9-26V857.9l18.9-26Z"/><path class="cls-2" d="M318,412l28.8,9.4,17.8,24.5v30.2l-17.8,24.5L318,510l-28.8-9.4-17.8-24.5V445.9l17.8-24.5Z"/><path class="cls-2" d="M260,176l22.3,7.3,13.8,19v23.4l-13.8,19L260,252l-22.3-7.3-13.8-19V202.3l13.8-19Z"/><path class="cls-2" d="M165,232l22.3,7.3,13.8,19v23.4l-13.8,19L165,308l-22.3-7.3-13.8-19V258.3l13.8-19Z"/><path class="cls-2" d="M328,600l3.5,1.1,2.2,3v3.8l-2.2,3L328,612l-3.5-1.1-2.2-3v-3.8l2.2-3Z"/><path class="cls-2" d="M34,40l16.5,5.3,10.1,14V76.7l-10.1,14L34,96,17.5,90.7,7.4,76.7V59.3l10.1-14Z"/><path class="cls-2" d="M35,450l15.9,5.2,9.8,13.5v16.6l-9.8,13.5L35,504l-15.9-5.2L9.3,485.3V468.7l9.8-13.5Z"/><path class="cls-2" d="M195,876l18.2,5.9,11.3,15.5v19.2l-11.3,15.5L195,938l-18.2-5.9-11.3-15.5V897.4l11.3-15.5Z"/></svg>